<?xml version="1.0" encoding="UTF-8"?>
<svg id="Layer_1" xmlns="http://www.w3.org/2000/svg" version="1.1" viewBox="0 0 500 500">
  <!-- Generator: Adobe Illustrator 30.2.1, SVG Export Plug-In . SVG Version: 2.1.1 Build 1)  -->
  <defs>
    <style>
      .st0 {
        font-family: itfFatimahArabic-Black, 'itf Fatimah Arabic';
        font-size: 90.7px;
        font-weight: 800;
      }

      .st0, .st1 {
        fill: #053a3a;
      }

      .st2 {
        fill: #af862e;
      }

      .st3 {
        fill: #056142;
      }
    </style>
  </defs>
  <g>
    <path class="st2" d="M147.3,144.4c2.1-2.2,2.5-7.5,2.5-10.5,0-16.1.1-32.2.4-48.5,0-1,.8-1.8,1.8-1.7,18.3,0,35.3,0,51.2,0,3.1,0,5.7-1,7.8-2.9,4.8-4.4,9.4-8.9,13.9-13.6,7.6-8,15.4-15.6,23.3-22.7,1.3-1.2,2.6-1.2,3.8,0,12.9,12.8,25,24.9,36.4,36.4,1.7,1.7,3.9,2.6,6.6,2.6,17.8.1,35.5.1,52.9.1,1,0,1.8.8,1.8,1.8.2,17.7.1,35.2,0,52.5,0,5.5,4.5,8.7,7.9,12.1,11.2,11.1,22.1,21.8,32.7,32,.6.6.6,1.5,0,2.1-11.6,11.9-23.1,23.3-34.5,34.4-2.7,2.6-5.6,5.6-5.7,9.6-.2,17-.4,34.7-.6,53.2,0,1.1-.9,2-2,2-16.8,0-34,0-51.5,0-4.5,0-6.3,1.7-9.2,4.6-11.7,11.6-23.5,23.4-35.4,35.4-1,1-2,1-3,0-12.4-12.6-24.7-24.8-36.9-36.5-4.8-4.7-12.5-4.1-18.9-3.9-13.7.5-27.4.5-41.2.5s-.8-.3-.9-.7c-.3-2.2-.5-4.2-.5-6.1,0-16.6-.1-33.1-.2-49.7,0-1.2-.4-2.2-1.3-3.1l-38.7-38.6c-.9-.9-.9-2.3,0-3.2,12-11.9,24.5-24.5,37.4-37.8M211.1,98.1c-14.7.2-29.3,0-43.8-.4-1.5,0-2.7,1.2-2.7,2.6,0,13.5,0,28.2-.2,44.1,0,2.4-.7,4.3-2,5.7-10.4,10.8-20.8,21.3-31.4,31.5-1.1,1.1-1.2,2.9,0,4,9.9,9.8,19.8,19.7,29.6,29.5,2.5,2.5,3.8,5,3.8,7.5.3,14.8.2,29.7-.2,44.6,0,.9.7,1.7,1.6,1.7,13.8,0,27.4,0,41,.2,5.2,0,9.6,1.9,13.3,5.5,9.3,9.3,18.9,18.8,28.8,28.5.5.5,1.2.5,1.7,0,10.6-10.1,20.6-20,30.1-29.7,3.1-3.2,6.9-4.8,11.3-4.7,15.9.3,30.1.3,42.5.1.6,0,.9-.3.9-.9-.1-12.9-.1-25.8,0-38.7,0-6.5-.4-10.1,3.4-13.9,10-10.3,20.2-20.2,30.5-29.9.9-.8.9-2.3,0-3.2-10.1-10.4-20.7-21.5-32-31.9-1.3-1.2-1.9-3.2-1.9-6.2,0-13.1,0-27.9,0-44.5,0-1.1-.9-2-2-1.9-14.5.6-29.5.6-45.2.1-2.5,0-4.7-1.6-6.4-3.3-10.1-10-20.2-20-30.4-30.1-.9-.9-2.3-.8-3.1,0-10,10.1-20.3,20.5-30.9,31-1.7,1.7-3.8,2.6-6.2,2.6h0Z"/>
    <path class="st2" d="M250.9,191.5c6.1-7.1,13.8-13.1,23.1-18.1,15.6-8.3,34.4-16.8,52.3-21,.6-.1,1.1,0,1.5.4,2.2,1.8,3.6,5.8,1,8.1-1.2,1.1-2.6,2.1-4.1,3-23.5,13.9-47.4,27.7-71.8,41.2-2.2,1.2-4.4,1.2-6.6,0-23-13.2-44.6-25.7-64.7-37.5-3.6-2.1-7.2-4.4-10.9-7-3-2.1-.5-5.7,1.3-7.6.5-.5,1.1-.6,1.7-.5,15.6,4.5,30.8,10.4,45.7,17.5,11.1,5.3,21.6,12.7,30.1,21.6.3.4.9.4,1.3,0h0Z"/>
    <path class="st3" d="M252.5,211.5l81.4-47.1c2.8-1.6,4.5-.9,5.3,2.2.1.5.2.8.2.8.8,3.2,0,5.5-2.7,7.1-28.3,16.4-56.6,32.8-84.9,49.1-1.2.7-2.7.7-3.9,0l-85-49c-2.7-1.6-3.7-3.9-2.8-6.9,0-.2.1-.5.2-.9.9-3.1,2.7-3.8,5.5-2.2l81.3,47c1.7.9,3.7.9,5.3,0h0Z"/>
    <path class="st1" d="M288.1,220.4c-3.6,1.6-6,4.2-7.4,7.6-.2.5-.2,1.1,0,1.6,2.5,9.6,11.9,14.1,19.7,18.7,1.8,1.1,2.1,2.5,1,4.3l-.5.9c-1.1,1.7-2.5,2.1-4.3,1.1-12.3-7.2-24.5-14.5-36.6-21.7-2.4-1.4-4.7-2.5-7.1-3.3-.7-.2-.8-1.2-.1-1.5l35-20.8c1.2-.7,2.8-.7,4,0l24.3,15.5c1.6,1,1.8,2.2.7,3.7l-1.1,1.5c-1.1,1.4-2.3,1.6-3.7.5-10.1-8-18-10.7-23.8-8.1h0Z"/>
    <path class="st1" d="M217.5,225.6c-7.1-12.7-22.1-3.3-29.7,2.8-1.9,1.5-3.3,1.2-4.4-1l-.3-.6c-1.1-2.1-.6-3.8,1.4-5.1l22.1-13.8c1.8-1.2,4.1-1.2,6,0l33.2,19.5c1,.6.9,2.1-.2,2.6-1.6.7-3.1,1.5-4.5,2.3-13,7.6-25.9,15.2-38.7,22.7-.9.5-2.1.3-2.6-.6l-1.7-2.4c-.6-.9-.6-1.8.2-2.6.9-.9,2-1.8,3.2-2.4,6.2-3.5,21.1-11.8,15.9-21.2h0Z"/>
  </g>
  <text class="st0" transform="translate(157.5 401.4)"><tspan x="0" y="0">يـُـسـْـر</tspan></text>
</svg>